<?xml version="1.0" encoding="UTF-8" standalone="no"?>
<!-- Generator: Adobe Illustrator 17.0.1, SVG Export Plug-In . SVG Version: 6.00 Build 0)  -->

<svg
   version="1.1"
   x="0px"
   y="0px"
   width="86px"
   height="86px"
   viewBox="0 0 86 86"
   enable-background="new 0 0 86 86"
   xml:space="preserve"
   id="svg5"
   sodipodi:docname="streamfish2.svg"
   inkscape:version="1.4.2 (ebf0e940d0, 2025-05-08)"
   inkscape:export-filename="streamfish2.png"
   inkscape:export-xdpi="562.0675"
   inkscape:export-ydpi="562.0675"
   xmlns:inkscape="http://www.inkscape.org/namespaces/inkscape"
   xmlns:sodipodi="http://sodipodi.sourceforge.net/DTD/sodipodi-0.dtd"
   xmlns="http://www.w3.org/2000/svg"
   xmlns:svg="http://www.w3.org/2000/svg"><defs
   id="defs5">
	<linearGradient
   id="SVGID_1_"
   gradientUnits="userSpaceOnUse"
   x1="79.238297"
   y1="91.327904"
   x2="6.7618999"
   y2="18.8514">
		<stop
   offset="0"
   style="stop-color:#6d0000;stop-opacity:1;"
   id="stop1" />
		<stop
   offset="0.99510002"
   style="stop-color:#930000;stop-opacity:1;"
   id="stop2" />
	</linearGradient>
	
	
	
	
</defs><sodipodi:namedview
   id="namedview5"
   pagecolor="#ffffff"
   bordercolor="#000000"
   borderopacity="0.25"
   inkscape:showpageshadow="2"
   inkscape:pageopacity="0.0"
   inkscape:pagecheckerboard="0"
   inkscape:deskcolor="#d1d1d1"
   inkscape:zoom="8.1627907"
   inkscape:cx="43.122507"
   inkscape:cy="43.122507"
   inkscape:window-width="1536"
   inkscape:window-height="955"
   inkscape:window-x="0"
   inkscape:window-y="0"
   inkscape:window-maximized="1"
   inkscape:current-layer="svg5" />

<path
   fill="url(#SVGID_1_)"
   d="M 43,0.3 C 19.417,0.3 0.3,19.418 0.3,43 c 0,0.408 0,41.277 0,41.277 0,0.786 0.637,1.423 1.423,1.423 h 82.553 c 0.786,0 1.423,-0.637 1.423,-1.423 0,0 0,-40.908 0,-41.277 C 85.7,19.418 66.583,0.3 43,0.3 Z"
   id="path2"
   style="display:inline" /><path
   fill="#d7ca95"
   d="m 10.6,33.725 c 0,-0.786 0.647,-1.424 1.445,-1.424 h 61.909 c 0.798,0 1.445,0.638 1.445,1.424 v 39.949 c 0,0.786 -0.647,1.424 -1.445,1.424 H 12.045 c -0.798,0 -1.445,-0.638 -1.445,-1.424 z"
   id="path3"
   style="display:none;fill:#585858;fill-opacity:1" /><path
   style="display:none;fill:#585858;fill-opacity:1;stroke-width:0.769538"
   d="m 43.096013,36.015314 c -1.268968,0 -2.458673,-0.642564 -3.363649,-1.818417 L 32.005437,24.151353 c -0.252408,-0.327823 -0.190845,-0.79801 0.136978,-1.049649 0.327823,-0.252408 0.798011,-0.190845 1.049649,0.136978 l 7.727697,10.046313 c 0.63179,0.820327 1.439035,1.252037 2.250127,1.232029 0.819558,-0.02616 1.588326,-0.51482 2.165479,-1.374394 L 60.20745,10.984565 c 0.230092,-0.343214 0.695662,-0.434019 1.038876,-0.204697 0.343214,0.230862 0.434789,0.695662 0.204697,1.038876 L 46.57817,33.976039 c -0.853417,1.271277 -2.04697,1.994642 -3.36057,2.036966 -0.04079,0.0015 -0.0808,0.0023 -0.121587,0.0023 z"
   id="path1" />
<g
   id="g2"
   transform="translate(21.435613,24.48349)">
		<path
   style="opacity:0.5;fill:#ffffff"
   d="m 59.6,44.273 c 0,2.246 -1.556,2.994 -3.673,1.662 L 37.042,33.979 c -2.116,-1.335 -2.071,-3.515 0.044,-4.85 L 55.903,17.174 c 2.118,-1.332 3.696,-0.586 3.696,1.662 v 25.437 z"
   id="path1-5" /><path
   id="path3-7"
   style="fill:#ffffff;fill-opacity:1"
   d="m -33.792535,66.496767 c -5.016742,0 -9.084924,4.216802 -9.084924,9.414932 v 57.896981 c 0,5.20061 4.068182,9.41493 9.084924,9.41493 h 65.744372 c 5.016742,0 9.084924,-4.2168 9.084924,-9.41493 V 75.911699 c 0,-5.200614 -4.068182,-9.414932 -9.084924,-9.414932 z M 9.2443801,77.949983 7.2060958,80.434749 c -0.028568,0.03502 -2.7981512,3.743202 -3.2321364,9.803176 0.3517504,-0.137683 0.5753061,-0.215383 0.6260445,-0.232947 l 1.1210563,0.339714 c 0.03,0.04 3.230978,4.161639 7.6629778,3.314639 2.133,-0.408 4.230584,-1.001272 5.925584,-1.543272 l 3.863034,-1.378269 0.713399,1.868427 c -0.114,0.047 -1.715185,0.700505 -4.023185,1.436505 l -8.20652,2.926394 c -0.081,0.029 -8.6225023,3.174734 -11.11350234,7.274734 l -0.61148527,-0.36883 c 1.77353641,1.78953 3.25640171,3.86023 3.25640171,7.05149 0,7.56362 -5.3550406,12.50497 -11.7152812,15.70449 -0.7784499,0.63801 -1.3367421,1.0097 -1.4170929,1.06282 l -0.198975,-0.29603 c -3.092494,1.38714 -6.331914,2.39814 -9.245075,3.12537 -1.926,0.751 -3.988971,1.17138 -6.143971,1.24238 l -0.194123,-1.9849 c 1.564,-0.253 3.529931,-0.62703 5.682931,-1.15503 2.791,-1.104 5.254085,-2.97493 7.197085,-5.51793 3.1389994,-4.107 4.4541113,-9.33779 3.4311113,-13.64679 l 0.7813423,-0.18442 c -0.1757931,-0.17712 -0.3557199,-0.35557 -0.5338364,-0.53384 -2.7520002,-2.753 -5.5955752,-5.59884 -5.5955752,-9.84685 0,-9.066349 8.2679209,-14.676011 14.4184341,-17.592334 0.61289065,-0.469121 1.02731661,-0.738618 1.10164409,-0.786195 l 0.14073868,0.22324 C 3.7368223,79.494754 5.8995462,78.878809 6.1675415,78.804121 Z M 4.1535226,81.628601 C 3.1380662,82.01209 1.8860037,82.523834 0.52828848,83.171873 -1.7338151,84.991088 -6.1349597,89.20754 -6.1349597,94.479498 c 0,0.876897 0.1195589,1.658226 0.3300079,2.368292 2.1025765,-2.687791 5.40883209,-4.606552 7.7309209,-5.716902 0.1059037,-4.589089 1.2363868,-7.49139 2.2275535,-9.502287 z m -9.7643521,5.192772 c -3.8707898,2.895732 -7.1534065,6.885227 -7.1534065,12.088966 0,3.420001 2.435208,5.846911 5.0132081,8.424911 2.585,2.586 5.2607145,5.25954 5.2607145,9.03154 0,1.75063 -0.5488549,3.37874 -1.344297,4.82879 3.00119253,-2.62749 5.0229147,-5.9845 5.0229147,-10.26907 0,-3.226 -1.93262958,-5.00605 -4.1736296,-7.06605 -2.411,-2.218 -5.1490942,-4.732962 -5.1490942,-9.380962 0,-2.929338 1.0981089,-5.523761 2.52359,-7.658125 z m 10.2350987,5.314098 c -1.8358956,0.734162 -7.1909739,3.120525 -9.4489033,6.799134 0.8425596,1.290755 2.0009918,2.359415 3.1933119,3.455375 0.2073463,0.19081 0.4143007,0.37954 0.6211914,0.57266 2.4310278,-3.693708 8.5195085,-6.472605 10.9630573,-7.473706 -2.6,-0.687 -4.4806573,-2.432463 -5.3286573,-3.353463 z M -7.1638079,110.81974 c 0.4663981,4.46625 -1.0269284,9.48527 -4.0959811,13.50121 -0.604,0.791 -1.251223,1.52058 -1.941223,2.19358 1.178253,-0.45056 2.348441,-0.95146 3.4844957,-1.5093 1.9170785,-1.59581 5.2218901,-4.88933 5.2218901,-8.6433 0,-2.08992 -1.1453531,-3.84204 -2.6691817,-5.54219 z"
   transform="matrix(0.40245246,0,0,0.40245246,21.856139,-10.164765)" />
		
	</g><g
   id="g1"
   transform="rotate(-135,30.232569,43.871199)"><path
     style="opacity:0.6;fill:#ffffff"
     d="m 38.531072,57.676257 c -0.279,0 -0.558,-0.117 -0.756,-0.345 -0.361,-0.418 -0.316,-1.049 0.101,-1.411 3.662,-3.174 5.762,-7.75 5.762,-12.556 0,-4.806 -2.1,-9.382 -5.761,-12.557 -0.417,-0.362 -0.462,-0.993 -0.101,-1.411 0.363,-0.418 0.993,-0.462 1.411,-0.1 4.099,3.554 6.45,8.682 6.45,14.067 0,5.385 -2.351,10.515 -6.451,14.068 -0.189,0.164 -0.423,0.245 -0.655,0.245 z"
     id="path2-2" /><path
     style="opacity:0.6;fill:#ffffff"
     d="m 34.001072,53.143257 c -0.294,0 -0.585,-0.129 -0.782,-0.376 -0.345,-0.432 -0.274,-1.062 0.157,-1.405 2.454,-1.958 3.861,-4.873 3.861,-7.998 0,-3.125 -1.407,-6.041 -3.861,-7.998 -0.432,-0.344 -0.502,-0.974 -0.157,-1.405 0.345,-0.431 0.973,-0.502 1.405,-0.158 2.932,2.339 4.613,5.824 4.613,9.562 0,3.738 -1.682,7.222 -4.613,9.561 -0.185,0.146 -0.405,0.217 -0.623,0.217 z"
     id="path3-9" /><path
     style="opacity:0.6;fill:#ffffff"
     d="m 44.585072,63.727257 c -0.271,0 -0.543,-0.11 -0.74,-0.327 -0.371,-0.409 -0.341,-1.042 0.067,-1.413 5.249,-4.768 8.259,-11.556 8.259,-18.623 0,-7.067 -3.01,-13.855 -8.259,-18.624 -0.408,-0.372 -0.438,-1.004 -0.067,-1.413 0.372,-0.409 1.004,-0.438 1.413,-0.068 5.664,5.147 8.913,12.475 8.913,20.104 0,7.63 -3.249,14.957 -8.913,20.104 -0.193,0.174 -0.433,0.26 -0.673,0.26 z"
     id="path4" /></g></svg>
